<svg xmlns="http://www.w3.org/2000/svg" viewBox="0 0 520 172" width="520" height="172">
    <path fill="#4285F4" d="M67.56 132.56c-36.16 0-66.51-29.44-66.51-65.6S31.4 1.36 67.56 1.36c20 0 34.24 7.84 44.96 18.08L99.88 32.08c-7.68-7.2-18.08-12.8-32.32-12.8-26.4 0-47.04 21.28-47.04 47.68s20.64 47.68 47.04 47.68c17.12 0 26.88-6.88 33.12-13.12 5.12-5.12 8.48-12.48 9.76-22.56H67.56V61.04h60.32c.64 3.2.96 7.04.96 11.2 0 13.44-3.68 30.08-15.52 41.92-11.52 12-26.24 18.4-45.76 18.4z"/>
    <path fill="#EA4335" d="M219.9 90.32c0 24.32-19.04 42.24-42.4 42.24s-42.4-17.92-42.4-42.24c0-24.48 19.04-42.24 42.4-42.24s42.4 17.76 42.4 42.24zm-18.56 0c0-15.2-11.04-25.6-23.84-25.6s-23.84 10.4-23.84 25.6c0 15.04 11.04 25.6 23.84 25.6s23.84-10.56 23.84-25.6z"/>
    <path fill="#FBBC05" d="M311.9 90.32c0 24.32-19.04 42.24-42.4 42.24s-42.4-17.92-42.4-42.24c0-24.48 19.04-42.24 42.4-42.24s42.4 17.76 42.4 42.24zm-18.56 0c0-15.2-11.04-25.6-23.84-25.6s-23.84 10.4-23.84 25.6c0 15.04 11.04 25.6 23.84 25.6s23.84-10.56 23.84-25.6z"/>
    <path fill="#4285F4" d="M400 50.49v75.99c0 31.2-18.4 44-40.16 44-20.48 0-32.8-13.76-37.44-24.96l16.16-6.72c2.88 6.88 9.92 15.04 21.28 15.04 13.92 0 22.56-8.64 22.56-24.8v-6.08h-.64c-4.16 5.12-12.16 9.6-22.24 9.6-21.12 0-40.48-18.4-40.48-42.08 0-23.84 19.36-42.4 40.48-42.4 10.08 0 18.08 4.48 22.24 9.44h.64v-7.03H400zm-16.32 39.99c0-14.88-9.92-25.76-22.56-25.76-12.8 0-23.52 10.88-23.52 25.76 0 14.72 10.72 25.44 23.52 25.44 12.64 0 22.56-10.72 22.56-25.44z"/>
    <path fill="#34A853" d="M430.56 5.84V130H412V5.84h18.56z"/>
    <path fill="#EA4335" d="M501.8 104.24l14.4 9.6c-4.64 6.88-15.84 18.72-35.2 18.72-24 0-41.92-18.56-41.92-42.24 0-25.12 18.08-42.24 39.84-42.24 21.92 0 32.64 17.44 36.16 26.88l1.92 4.8-56.48 23.36c4.32 8.48 11.04 12.8 20.48 12.8s16-4.64 20.8-11.68zm-44.32-15.2l37.76-15.68c-2.08-5.28-8.32-8.96-15.68-8.96-9.44 0-22.56 8.32-22.08 24.64z"/>
    <path fill="none" d="M0 0h520v172H0z"/>
</svg>
